<?xml version="1.0" encoding="utf-8"?>
<!-- Svg Vector Icons : http://www.onlinewebfonts.com/icon -->
<!DOCTYPE svg PUBLIC "-//W3C//DTD SVG 1.1//EN" "http://www.w3.org/Graphics/SVG/1.1/DTD/svg11.dtd">
<svg version="1.1" xmlns="http://www.w3.org/2000/svg" xmlns:xlink="http://www.w3.org/1999/xlink" x="0px" y="0px" viewBox="0 0 256 256" enable-background="new 0 0 256 256" xml:space="preserve">
<metadata> Svg Vector Icons : http://www.onlinewebfonts.com/icon </metadata>
<g><g><path fill="#000000" d="M128,10C62.8,10,10,62.8,10,128c0,65.2,52.8,118,118,118c65.2,0,118-52.8,118-118C246,62.8,193.2,10,128,10z M134.8,57.9c5.3-6.3,14.4-10.9,21.9-11.2c1,8.7-2.6,17.4-7.7,23.7c-5.2,6.3-13.7,11.1-22,10.5C125.8,72.3,130,63.4,134.8,57.9z M177.2,176.7c-6.2,9.1-12.6,18.1-22.7,18.3c-9.9,0.2-13.1-5.9-24.5-5.9c-11.4,0-14.9,5.7-24.3,6.1c-9.8,0.4-17.2-9.8-23.4-18.8c-12.8-18.4-22.5-52.1-9.4-74.8c6.5-11.3,18.1-18.4,30.7-18.6c9.6-0.2,18.7,6.5,24.5,6.5c5.9,0,16.9-8,28.4-6.8c4.8,0.2,18.4,2,27.2,14.7c-0.7,0.4-16.2,9.5-16,28.3c0.2,22.5,19.7,29.9,19.9,30.1C187.4,156.1,184.4,166.2,177.2,176.7z"/></g></g>
</svg>